#!OML:ASF X:\für Bonn\!DataBase\2005_08_10_Bjorn_Final\c3d\bjorn.ASF
:FULLY-SPECIFIED
:DEGREES
286
root 5.35546 19.3522 -0.0383244 223.125 -266.557 -501.068
lowerback -0.0464984 2.23763 -0.522108
upperback 3.81428 3.13125 -1.89133
thorax 4.03201 1.60693 -1.54192
lowerneck -0.630814 -0.518499 2.1216
upperneck -0.860854 -0.710952 -3.90556
head -0.182134 -0.350796 -1.56279
rclavicle -2.7482e-014 1.33186e-014
rhumerus -35.2001 -5.09413 -80.5932
rradius 29.4563
rwrist 0.527138
rhand -10.0121 10.5304
rfingers 7.12502
rthumb 15.972 -18.8311
lclavicle -2.7482e-014 1.33186e-014
lhumerus -55.1304 -43.2965 98.169
lradius 48.1036
lwrist -4.48281
lhand -5.19409 -5.70796
lfingers 7.12502
lthumb 20.6069 23.2182
rfemur -11.9867 -11.8933 12.6257
rtibia 31.8533
rfoot -4.08609 26.4549
rtoes 18.3033
lfemur -12.8082 12.9304 -19.2283
ltibia 32.5887
lfoot -13.9907 -7.89074
ltoes -16.3376
287
root 5.35974 19.343 -0.037609 228.774 -266.557 -495.414
lowerback -0.157074 2.17755 -0.789886
upperback 3.83533 3.06873 -2.04725
thorax 4.11007 1.57098 -1.55047
lowerneck -0.761619 -0.546715 2.07931
upperneck -1.03332 -0.753595 -3.75904
head -0.213801 -0.372382 -1.50877
rclavicle -2.16178e-014 1.86858e-014
rhumerus -35.5274 -4.67636 -80.7615
rradius 29.8995
rwrist 0.216937
rhand -9.8944 10.3196
rfingers 7.12502
rthumb 16.0853 -19.0328
lclavicle -2.16178e-014 1.86858e-014
lhumerus -54.4599 -43.3208 97.5053
lradius 48.3515
lwrist -4.25536
lhand -4.76197 -5.50831
lfingers 7.12502
lthumb 21.0221 23.3723
rfemur -11.6733 -12.1669 12.3157
rtibia 31.3916
rfoot -4.12246 26.6989
rtoes 18.7016
lfemur -12.6596 12.5807 -19.4812
ltibia 32.3669
lfoot -14.14 -8.21621
ltoes -15.4363
288
root 5.36412 19.3315 -0.038059 232.659 -266.606 -491.562
lowerback -0.336253 2.13934 -0.918181
upperback 3.90699 3.03507 -2.16809
thorax 4.28604 1.5534 -1.59596
lowerneck -1.10249 -0.574616 2.00715
upperneck -1.1241 -0.795032 -3.57744
head -0.184745 -0.395532 -1.43921
rclavicle -2.5345e-015 -4.96962e-015
rhumerus -35.7807 -4.20597 -80.9529
rradius 30.414
rwrist -0.31566
rhand -9.74061 10.0418
rfingers 7.12502
rthumb 16.2334 -19.2986
lclavicle -2.5345e-015 -4.96962e-015
lhumerus -53.5404 -43.311 96.6622
lradius 48.5771
lwrist -3.98836
lhand -4.38491 -5.42762
lfingers 7.12502
lthumb 21.3843 23.4123
rfemur -11.4161 -12.4135 12.1608
rtibia 30.9563
rfoot -4.33838 26.9924
rtoes 18.6395
lfemur -12.5632 12.1367 -19.6125
ltibia 32.176
lfoot -14.3322 -8.45304
ltoes -14.3759
289
root 5.36784 19.3165 -0.0390929 236.387 -266.675 -487.841
lowerback -0.470706 2.09321 -1.00259
upperback 3.98202 2.98903 -2.27335
thorax 4.44144 1.53094 -1.65256
lowerneck -1.51935 -0.616542 1.88997
upperneck -1.12243 -0.852566 -3.37858
head -0.114867 -0.427379 -1.35721
rclavicle -1.5704e-014 -7.7526e-015
rhumerus -36.0611 -3.77256 -81.1259
rradius 30.938
rwrist -0.876711
rhand -9.56631 9.77557
rfingers 7.12502
rthumb 16.4012 -19.551
lclavicle -1.5704e-014 -7.7526e-015
lhumerus -52.5386 -43.1571 95.7574
lradius 48.766
lwrist -3.72858
lhand -4.06285 -5.40196
lfingers 7.12502
lthumb 21.6936 23.4026
rfemur -11.1558 -12.5808 12.0478
rtibia 30.5843
rfoot -4.78636 27.303
rtoes 18.5273
lfemur -12.4519 11.7221 -19.7039
ltibia 32.0004
lfoot -14.5757 -8.66808
ltoes -13.1392
290
root 5.36879 19.2947 -0.0408699 241.173 -266.719 -483.064
lowerback -0.593808 2.03708 -1.10169
upperback 4.08113 2.93406 -2.41098
thorax 4.61669 1.50487 -1.73525
lowerneck -1.96971 -0.656777 1.80175
upperneck -1.17584 -0.908715 -3.14539
head -0.056426 -0.457986 -1.27011
rclavicle -2.03754e-015 3.18055e-015
rhumerus -36.2662 -3.39446 -81.3174
rradius 31.3889
rwrist -1.37006
rhand -9.47138 9.67946
rfingers 7.12502
rthumb 16.4926 -19.6396
lclavicle -2.03754e-015 3.18055e-015
lhumerus -51.5 -43.0585 94.8141
lradius 48.9806
lwrist -3.32573
lhand -4.03478 -5.41454
lfingers 7.12502
lthumb 21.7206 23.3869
rfemur -10.947 -12.7738 11.8997
rtibia 30.3113
rfoot -5.52783 27.6227
rtoes 17.8592
lfemur -12.3633 11.1683 -19.8553
ltibia 31.8388
lfoot -14.9586 -8.79534
ltoes -11.6703
291
root 5.36513 19.2649 -0.0425142 246.227 -266.722 -478.018
lowerback -0.673702 1.98498 -1.20473
upperback 4.16753 2.88513 -2.56848
thorax 4.75535 1.48243 -1.83837
lowerneck -2.28461 -0.714023 1.69939
upperneck -1.38328 -0.987326 -2.88559
head -0.0681192 -0.497175 -1.17191
rclavicle -1.69961e-014 2.8625e-014
rhumerus -36.465 -3.2128 -81.4676
rradius 31.7525
rwrist -1.6407
rhand -9.49392 9.75932
rfingers 7.12502
rthumb 16.4709 -19.5615
lclavicle -1.69961e-014 2.8625e-014
lhumerus -50.4977 -42.9584 93.8851
lradius 49.2653
lwrist -2.71041
lhand -4.14312 -5.43278
lfingers 7.12502
lthumb 21.6165 23.3806
rfemur -10.8082 -12.8351 11.7381
rtibia 30.1499
rfoot -6.47659 27.8559
rtoes 17.0675
lfemur -12.3062 10.5355 -20.0428
ltibia 31.7092
lfoot -15.4477 -8.83699
ltoes -10.0685
292
root 5.35798 19.2331 -0.0453653 250.641 -266.766 -473.631
lowerback -0.730192 1.93111 -1.24965
upperback 4.24615 2.82858 -2.6811
thorax 4.87267 1.45706 -1.9293
lowerneck -2.5535 -0.767238 1.5124
upperneck -1.67342 -1.05695 -2.60556
head -0.111775 -0.530004 -1.05298
rclavicle -4.67144e-015 -6.36111e-015
rhumerus -36.6504 -3.06947 -81.5527
rradius 32.0749
rwrist -1.70195
rhand -9.56978 9.92546
rfingers 7.12502
rthumb 16.3979 -19.4014
lclavicle -4.67144e-015 -6.36111e-015
lhumerus -49.3422 -42.6384 92.8754
lradius 49.4522
lwrist -1.83876
lhand -4.1662 -5.49234
lfingers 7.12502
lthumb 21.5944 23.3236
rfemur -10.7538 -12.8646 11.6734
rtibia 30.0871
rfoot -7.69834 28.0558
rtoes 15.867
lfemur -12.3093 9.82524 -20.1693
ltibia 31.6365
lfoot -15.9849 -8.78667
ltoes -8.3015
293
root 5.35046 19.203 -0.0480584 254.866 -266.899 -469.413
lowerback -0.714534 1.88756 -1.15804
upperback 4.28256 2.77643 -2.79009
thorax 4.91087 1.43897 -2.09605
lowerneck -2.77083 -0.836601 1.43577
upperneck -1.88853 -1.14875 -2.42533
head -0.142234 -0.574565 -0.984691
rclavicle -1.14301e-014 -1.03368e-014
rhumerus -36.9418 -2.80465 -81.716
rradius 32.4362
rwrist -1.93163
rhand -9.749 10.1231
rfingers 7.12502
rthumb 16.2253 -19.2179
lclavicle -1.14301e-014 -1.03368e-014
lhumerus -48.1318 -42.0329 91.7773
lradius 49.4594
lwrist -0.993226
lhand -4.07276 -5.66974
lfingers 7.12502
lthumb 21.6841 23.1359
rfemur -10.7063 -12.7702 11.7408
rtibia 30.0976
rfoot -9.13732 28.0892
rtoes 14.2646
lfemur -12.3424 9.12205 -20.1806
ltibia 31.6534
lfoot -16.5006 -8.63095
ltoes -7.15399
294
root 5.34288 19.1766 -0.0546804 259.76 -267.127 -464.533
lowerback -0.691655 1.8215 -0.948012
upperback 4.31471 2.68591 -2.84568
thorax 4.9413 1.40469 -2.27612
lowerneck -3.15439 -0.906515 1.42854
upperneck -1.85914 -1.24216 -2.46166
head -0.0722028 -0.622594 -0.997773
rclavicle -2.65378e-014 1.90833e-014
rhumerus -37.2201 -2.52212 -81.8343
rradius 32.8127
rwrist -2.17202
rhand -9.90362 10.274
rfingers 7.12502
rthumb 16.0765 -19.0791
lclavicle -2.65378e-014 1.90833e-014
lhumerus -46.747 -40.9424 90.5732
lradius 49.1927
lwrist -0.404826
lhand -3.85609 -6.09562
lfingers 7.12502
lthumb 21.8921 22.6858
rfemur -10.6816 -12.6135 11.934
rtibia 30.1556
rfoot -10.8481 27.9299
rtoes 12.186
lfemur -12.4484 8.40927 -20.1054
ltibia 31.7864
lfoot -17.0421 -8.31057
ltoes -6.77345
